<svg width="50" height="50" viewBox="0 0 50 50" fill="none" xmlns="http://www.w3.org/2000/svg"><path d="M24.9979 47.4304C37.3871 47.4304 47.4304 37.3871 47.4304 24.9979C47.4304 12.6088 37.3871 2.56543 24.9979 2.56543C12.6088 2.56543 2.56543 12.6088 2.56543 24.9979C2.56543 37.3871 12.6088 47.4304 24.9979 47.4304Z" fill="#005485"/><path fill-rule="evenodd" clip-rule="evenodd" d="M27.6585 29.6418C24.7699 29.4189 23.6589 29.3446 22.8442 29.2703C22.1035 29.1959 20.6962 29.0473 20.6962 30.5336C20.6962 31.7226 21.7331 32.0199 22.1775 32.0942C22.622 32.2428 26.3253 33.0602 26.3253 33.0602H22.1775C21.4369 33.0602 20.9184 32.9116 20.0296 32.0199C19.1408 31.1281 16.6966 28.75 16.6966 28.75C16.6966 28.75 15.5856 27.7097 14.6227 28.6757C13.7339 29.5675 14.7708 30.7565 14.7708 30.7565C14.7708 30.7565 17.7335 34.0263 18.1779 34.4722C19.8815 36.33 21.3628 36.8502 22.696 36.8502H33.0655C35.7319 36.8502 35.806 36.7759 35.806 35.2896C35.6579 31.1281 31.9545 28.3785 27.6585 29.6418ZM19.8112 29.6966L19.363 29.1959C19.0667 28.8987 18.8423 28.6801 18.6381 28.5038C17.8453 27.819 17.257 27.5185 16.6225 27.7097C16.5607 27.7283 16.5594 27.7286 16.4003 27.784C16.7706 27.9326 19.8814 31.1281 19.8814 31.1281C19.8814 30.9795 19.8074 30.8308 19.8074 30.6079C19.8074 30.4592 19.8112 29.8452 19.8112 29.6966ZM18.682 27.3019V24.4701C19.1641 23.8929 20.0477 22.1633 20.0477 21.5236L18.1688 21.5205V18.3845H19.5684C19.4595 17.7292 19.4051 17.5726 19.4051 17.0421C19.4051 15.4039 19.9027 14.1167 20.898 13.1806C21.8932 12.2444 23.2617 11.7764 25.0033 11.7764C26.574 11.7764 27.818 12.1859 28.7355 13.005C29.653 13.8242 30.1662 14.967 30.275 16.4336L30.2899 16.82C28.8656 16.82 26.5195 16.8549 26.5195 16.8549C26.4262 16.2932 26.2552 15.8954 26.0064 15.6613C25.7575 15.4273 25.3921 15.3103 24.91 15.3103C24.3658 15.3103 23.9692 15.4741 23.7204 15.8017C23.4716 16.1294 23.3472 16.6365 23.3472 17.323C23.3472 17.8066 23.3938 17.8696 23.4872 18.3845H28.0357V21.5205H23.8837C23.8526 22.7687 23.5649 23.1049 23.0206 23.8383H30.6249L30.5788 27.3019H18.682Z" fill="white"/></svg>