<svg width="50" height="50" viewBox="0 0 50 50" fill="none" xmlns="http://www.w3.org/2000/svg"><path d="M24.9979 47.4304C37.3871 47.4304 47.4304 37.3871 47.4304 24.9979C47.4304 12.6088 37.3871 2.56543 24.9979 2.56543C12.6088 2.56543 2.56543 12.6088 2.56543 24.9979C2.56543 37.3871 12.6088 47.4304 24.9979 47.4304Z" fill="#005485"/><path fill-rule="evenodd" clip-rule="evenodd" d="M21.6205 19.4728C22.3428 18.04 23.5265 16.3534 24.6535 16.0938C25.6609 15.8619 27.8556 15.7861 29.4566 15.7862C31.0575 15.7864 33.252 15.8627 34.2593 16.0945C35.3931 16.3557 36.5843 18.0612 37.3055 19.4997C37.3471 19.5413 38.1155 21.1156 38.1155 21.1156C38.1988 21.2203 39.2908 22.5903 39.7791 23.1573C40.19 23.6347 40.69 25.7951 40.035 29.4868L39.982 33.4755C39.982 33.9105 39.7626 34.2993 39.3133 34.3627L36.5235 34.3682C36.1026 34.323 35.7995 33.9726 35.8023 33.4755V32.4239C34.2126 32.5587 31.9898 32.68 29.4563 32.7165V32.7157C26.923 32.6792 24.7003 32.5579 23.1105 32.4232V33.4748C23.1133 33.9718 22.8103 34.3222 22.3893 34.3675L19.5995 34.362C19.1502 34.2985 18.9308 33.9097 18.9308 33.4748L18.8778 29.4861C18.2228 25.7944 18.7229 23.634 19.1337 23.1565C19.6416 22.5668 20.8024 21.1085 20.8024 21.1085C20.8024 21.1085 21.5769 19.5593 21.6205 19.4728ZM17.6322 29.4769C16.1635 29.4261 14.9395 29.3439 13.8945 29.2553V30.2123C13.897 30.6645 13.6212 30.9834 13.2382 31.0246L10.6996 31.0196C10.2908 30.9618 10.0912 30.608 10.0912 30.2123L10.043 26.5828C9.447 23.2236 9.90198 21.2578 10.2758 20.8233C10.7252 20.3015 11.7364 19.0324 11.7919 18.9628L12.4964 17.5609C12.4964 17.5609 14.251 14.638 15.2985 14.3967C16.2264 14.1831 17.7816 14.0268 19.4987 13.9727H19.4987C21.2158 14.0268 22.771 14.1831 23.6989 14.3967C23.9358 14.4512 24.2089 14.643 24.4895 14.9076C24.4895 14.9076 23.473 15.2956 23.0137 15.6889C22.8522 15.6494 21.868 15.4336 19.4987 15.3753C16.8884 15.4395 15.9593 15.6949 15.9593 15.6949C15.647 15.7331 15.2353 15.9393 15.0494 16.1617C15.0494 16.1617 14.7932 16.3849 14.3066 17.2488C13.82 18.1122 13.6591 18.5653 13.6591 18.5653C13.5663 18.7898 13.7123 18.9947 13.986 19.0167C13.986 19.0167 14.8627 19.1448 19.0057 19.1743L20.3598 19.1703L19.7219 20.4396C19.4518 20.7779 18.6029 21.8383 18.1932 22.3141C18.1932 22.3142 18.1931 22.3143 18.193 22.3143C17.9943 22.5453 17.7364 23.0008 17.5659 23.7137C17.3034 24.8113 17.1625 26.7505 17.6322 29.4769ZM34.4924 27.8408C36.0784 27.8126 37.2621 27.6878 37.9523 27.2004C38.6977 26.6754 38.439 25.5671 37.9747 24.6292C37.8293 24.3378 37.4856 24.2067 37.1867 24.3327C35.0857 25.2136 34.4851 26.1802 33.986 26.876C33.693 27.2835 33.9897 27.85 34.4924 27.8408ZM24.4418 27.8401C22.8558 27.8118 21.6507 27.687 20.9606 27.1996C20.2152 26.6747 20.4738 25.5664 20.9382 24.6285C21.0835 24.337 21.4272 24.2059 21.7261 24.332C23.8272 25.2128 24.4491 26.1795 24.9482 26.8752C25.2412 27.2827 24.9445 27.8492 24.4418 27.8401ZM15.4744 25.0851C14.0313 25.0593 12.5662 24.9458 11.9381 24.5023C11.2598 24.0246 11.4953 23.0162 11.9178 22.1627C12.05 21.8975 12.3628 21.7782 12.6347 21.893C14.5466 22.6944 15.4811 23.574 15.9352 24.2071C16.2018 24.5779 15.9319 25.0934 15.4744 25.0851ZM29.4563 17.3299C26.4544 17.3299 25.3798 17.5205 25.3798 17.5205C25.0365 17.5625 24.5841 17.7891 24.3798 18.0335C24.3798 18.0335 24.0982 18.2788 23.5635 19.2282C23.0288 20.177 22.8519 20.675 22.8519 20.675C22.75 20.9217 22.9104 21.1469 23.2111 21.1711C23.2111 21.1711 24.4304 21.3118 28.9835 21.3443L29.9293 21.345C34.4824 21.3126 35.7018 21.1719 35.7018 21.1719C36.0025 21.1477 36.1629 20.9225 36.061 20.6757C36.061 20.6757 35.8841 20.1778 35.3494 19.2289C34.8146 18.2796 34.5331 18.0343 34.5331 18.0343C34.3288 17.7899 33.8763 17.5633 33.5331 17.5213C33.5331 17.5213 32.4581 17.3299 29.4563 17.3299Z" fill="white"/></svg>