<svg xmlns="http://www.w3.org/2000/svg" viewBox="0 0 40 40"><path d="M16.725 27.793c6.868 0 10.625-5.691 10.625-10.626 0-.161-.003-.322-.011-.482a7.6 7.6 0 001.864-1.934c-.67.297-1.39.498-2.145.588a3.747 3.747 0 001.642-2.066 7.498 7.498 0 01-2.371.907 3.735 3.735 0 00-6.365 3.405 10.6 10.6 0 01-7.697-3.901 3.73 3.73 0 001.156 4.985 3.708 3.708 0 01-1.691-.467l-.001.048a3.736 3.736 0 002.996 3.661 3.762 3.762 0 01-1.687.064 3.74 3.74 0 003.49 2.593A7.497 7.497 0 0111 26.115a10.569 10.569 0 005.725 1.678" fill="#fff"/></svg>
